<svg xmlns="http://www.w3.org/2000/svg" xmlns:xlink="http://www.w3.org/1999/xlink" fill="none" version="1.1" width="16.877197265625" height="16.877197265625" viewBox="0 0 16.877197265625 16.877197265625"><g><g><path d="M0,8.43858C0,13.0991,3.77809,16.8772,8.43859,16.8772C13.0991,16.8772,16.8772,13.0991,16.8772,8.43858C16.8772,3.77808,13.0991,0,8.43859,0C3.77809,0,0,3.77808,0,8.43858C0,8.43858,0,8.43858,0,8.43858Z" fill="#8F441F" fill-opacity="1"/></g><g><path d="M3.0619049072265625,3.952486515045166C3.0619049072265625,3.952486515045166,13.815304907226562,3.952486515045166,13.815304907226562,3.952486515045166C13.815304907226562,3.952486515045166,13.815304907226562,11.607236515045166,13.815304907226562,11.607236515045166C13.815304907226562,11.607236515045166,3.0619049072265625,11.607236515045166,3.0619049072265625,11.607236515045166C3.0619049072265625,11.607236515045166,3.0619049072265625,3.952486515045166,3.0619049072265625,3.952486515045166C3.0619049072265625,3.952486515045166,3.0619049072265625,3.952486515045166,3.0619049072265625,3.952486515045166Z" fill="#FFFFFF" fill-opacity="1"/></g><g><path d="M11.532543184509278,15.406098818969726C11.532543184509278,15.406098818969726,2.5524211845092775,14.253698818969726,2.5524211845092775,14.253698818969726C1.5822830845092772,14.129198818969726,1.6326065845092774,11.080608818969727,1.7179489845092772,10.106488818969726C1.7179489845092772,10.106488818969726,2.150185184509277,5.173018818969727,2.150185184509277,5.173018818969727C2.2355271845092775,4.1988988189697265,3.3847231845092773,3.1775188189697268,4.353433184509278,3.0423888189697266C4.353433184509278,3.0423888189697266,12.097803184509278,1.9620386089697266,12.097803184509278,1.9620386089697266C13.066503184509278,1.8269368189697266,15.040603184509278,5.491778818969727,15.021503184509278,6.469388818969726C15.021503184509278,6.469388818969726,14.877403184509276,13.857598818969727,14.877403184509276,13.857598818969727M8.441753184509277,4.917328818969727C6.543233184509277,4.917328818969727,5.211453184509278,5.731778818969726,5.211453184509278,5.731778818969726C5.941093184509278,5.080228818969727,7.2162231845092775,4.704868818969727,7.2162231845092775,4.704868818969727C7.2162231845092775,4.704868818969727,7.095783184509277,4.584488818969726,7.095783184509277,4.584488818969726C5.898593184509277,4.605728818969727,4.814733184509278,5.4343288189697265,4.814733184509278,5.4343288189697265C3.5962931845092774,7.976818818969726,3.6742031845092775,10.172248818969727,3.6742031845092775,10.172248818969727C4.6659931845092775,11.454108818969727,6.139453184509278,11.362068818969727,6.139453184509278,11.362068818969727C6.139453184509278,11.362068818969727,6.6424131845092775,10.724678818969727,6.6424131845092775,10.724678818969727C5.7569031845092775,10.533458818969727,5.197293184509277,9.747328818969727,5.197293184509277,9.747328818969727C5.197293184509277,9.747328818969727,6.5290731845092775,10.653848818969726,8.441753184509277,10.653848818969726C10.354443184509277,10.653848818969726,11.686203184509278,9.747328818969727,11.686203184509278,9.747328818969727C11.686203184509278,9.747328818969727,11.126593184509277,10.533458818969727,10.241083184509277,10.724678818969727C10.241083184509277,10.724678818969727,10.744043184509277,11.362068818969727,10.744043184509277,11.362068818969727C10.744043184509277,11.362068818969727,12.217503184509278,11.454108818969727,13.209303184509277,10.172248818969727C13.209303184509277,10.172248818969727,13.287203184509277,7.976818818969726,12.068803184509278,5.4343288189697265C12.068803184509278,5.4343288189697265,10.984913184509278,4.605728818969727,9.787713184509277,4.584488818969726C9.787713184509277,4.584488818969726,9.667273184509277,4.704868818969727,9.667273184509277,4.704868818969727C9.667273184509277,4.704868818969727,10.942403184509278,5.080228818969727,11.672063184509277,5.731798818969727C11.672063184509277,5.731798818969727,10.340263184509277,4.917328818969727,8.441753184509277,4.917328818969727ZM6.975363184509277,7.601458818969727C7.435833184509278,7.601458818969727,7.811273184509277,8.005138818969726,7.804193184509277,8.500898818969727C7.804193184509277,8.989568818969726,7.435833184509278,9.400308818969727,6.975363184509277,9.400308818969727C6.521983184509278,9.400308818969727,6.153613184509277,8.989568818969726,6.153613184509277,8.500898818969727C6.153613184509277,8.005138818969726,6.5149031845092775,7.601458818969727,6.975363184509277,7.601458818969727ZM9.929393184509278,7.601458818969727C10.389853184509278,7.601458818969727,10.758233184509278,8.005138818969726,10.758233184509278,8.500898818969727C10.758233184509278,8.989568818969726,10.389853184509278,9.400308818969727,9.929393184509278,9.400308818969727C9.476003184509278,9.400308818969727,9.107663184509278,8.989568818969726,9.107663184509278,8.500898818969727C9.107663184509278,8.005138818969726,9.468943184509278,7.601458818969727,9.929393184509278,7.601458818969727C9.929393184509278,7.601458818969727,9.929393184509278,7.601458818969727,9.929393184509278,7.601458818969727Z" fill="#8F441F" fill-opacity="1"/></g></g></svg>