<svg xmlns="http://www.w3.org/2000/svg" xmlns:xlink="http://www.w3.org/1999/xlink" fill="none" version="1.1" width="16.8800048828125" height="16.8798828125" viewBox="0 0 16.8800048828125 16.8798828125"><g><g><g><g><ellipse cx="8.4399995803833" cy="8.4399995803833" rx="8.4399995803833" ry="8.4399995803833" fill="#8F441F" fill-opacity="1"/></g></g><g><path d="M12.38179,8.79303C12.38132,8.62504,12.26656,8.51643,12.08941,8.51643C11.92571,8.519680000000001,11.79559,8.63996,11.79799,8.785820000000001C11.79941,8.941510000000001,11.94513,9.08999,12.09894,9.08278C12.2437,9.07641,12.39894,8.94745,12.38179,8.79303ZM7.20658,11.11398C7.19039,11.27094,7.35372,11.41391,7.48991,11.40882C7.65324,11.40245,7.78705,11.2964,7.79134,11.119489999999999C7.79467,10.96083,7.66753,10.84417,7.4961,10.84375C7.32801,10.8429,7.20658,10.95617,7.20658,11.11398ZM6.67087,10.74278C6.708959999999999,10.68763,6.73848,10.63884,6.77372,10.5943C6.89991,10.43309,7.06277,10.324069999999999,7.26658,10.27867C7.34277,10.26171,7.42277,10.25449,7.50181,10.250250000000001C7.79229,10.23625,8.0161,10.366489999999999,8.198,10.571819999999999C8.234670000000001,10.61297,8.25229,10.621870000000001,8.30419,10.59345C8.520859999999999,10.47552,8.74229,10.36479,8.96133,10.250250000000001C9.33609,10.054680000000001,9.70895,9.85614,10.085139999999999,9.661850000000001C10.44037,9.478159999999999,10.79799,9.29829,11.15466,9.11629C11.17561,9.106110000000001,11.19894,9.09805,11.21561,9.0832C11.22783,9.07053,11.23383,9.054030000000001,11.23227,9.03739C11.21942,8.96102,11.18846,8.88466,11.18942,8.80873C11.19227,8.44559,11.38894,8.12021,11.75941,7.9814799999999995C12.05989,7.86949,12.34798,7.89834,12.61703,8.07821C12.77989,8.18681,12.89417,8.33402,12.95417,8.51134C13.008,8.66958,13.0151,8.83588,12.97179,9.00345C12.91388,9.24935,12.73865,9.46059,12.49179,9.58209C12.34846,9.65633,12.19417,9.66524,12.03656,9.662700000000001C11.85894,9.65973,11.70322,9.60034,11.56084,9.50149C11.54799,9.49216,11.51989,9.49089,11.50561,9.49852C11.32942,9.58888,11.15513,9.682210000000001,10.979420000000001,9.77427C10.671800000000001,9.93505,10.363710000000001,10.09414,10.056560000000001,10.25619C9.74942,10.417819999999999,9.444189999999999,10.58285,9.13752,10.74533C8.91133,10.86496,8.68371,10.982050000000001,8.45848,11.1038C8.43031,11.122589999999999,8.41151,11.15045,8.4061,11.181429999999999C8.3561,11.52675,8.183720000000001,11.78087,7.84895,11.929770000000001C7.74244,11.97594,7.62551,11.999880000000001,7.50705,11.99977C7.33207,12.003730000000001,7.16034,11.95715,7.01753,11.86698C6.8627199999999995,11.76843,6.74197,11.633230000000001,6.66896,11.47669C6.64991,11.43724,6.62753,11.39482,6.6261,11.35324C6.62277,11.26416,6.56515,11.22343,6.495150000000001,11.18864C6.34277,11.11228,6.18896,11.037189999999999,6.03658,10.96083C5.45538,10.67099,4.8750599999999995,10.37968,4.29564,10.086929999999999C4.09135,9.98341,3.8851620000000002,9.8833,3.684211,9.77469C3.481831,9.66567,3.339926,9.49428,3.237546,9.29956C3.150219,9.140609999999999,3.0832885,8.9734,3.0380238999999998,8.80109C2.999452663,8.64116,2.99754793,8.47019,3.00135744,8.3039C3.00802412,8.00057,3.106119,7.72695,3.351832,7.52501C3.444213,7.44908,3.556593,7.3952,3.664688,7.3392C3.852306,7.242900000000001,4.0427800000000005,7.15127,4.23278,7.06006C4.5623000000000005,6.90182,4.89325,6.74698,5.222300000000001,6.5883199999999995C5.43849,6.48439,5.6523,6.37451,5.8689599999999995,6.27015C6.16087,6.13016,6.45468,5.994403,6.74658,5.854408C6.98944,5.737745,7.23086,5.617265,7.47324,5.500178C7.78943,5.347456,8.10324,5.187523,8.42562,5.0471032C8.555620000000001,4.9902567,8.70276,4.9864387,8.8499,5.0271646C9.07562,5.0891018,9.27038,5.210855,9.478950000000001,5.305033C9.75609,5.430605,10.03133,5.55957,10.30752,5.687687C10.521329999999999,5.786956,10.73418,5.887497,10.94847,5.985494C11.17037,6.08604,11.3937,6.18361,11.61608,6.28373C11.76323,6.3499099999999995,11.90942,6.41821,12.05561,6.48608C12.1937,6.54972,12.33179,6.61293,12.46798,6.67911C12.53608,6.71262,12.60084,6.75335,12.61275,6.83607C12.62597,6.91878,12.5815,7.000360000000001,12.50037,7.04224C12.28989,7.14788,12.07846,7.25096,11.86846,7.35702C11.51989,7.53308,11.17228,7.71125,10.82371,7.887309999999999C10.515609999999999,8.04257,10.20609,8.19529,9.898,8.35056C9.64228,8.479099999999999,9.38847,8.61104,9.132760000000001,8.74C8.822759999999999,8.89612,8.510860000000001,9.04969,8.20038,9.20538C8.0061,9.30253,7.81277,9.40137,7.61801,9.4981C7.52182,9.54646,7.42086,9.58718,7.31039,9.56809C7.24528,9.55695,7.18258,9.53662,7.12467,9.507850000000001C6.65991,9.27453,6.19754,9.03823,5.7341999999999995,8.80321C5.43325,8.65049,5.13087,8.500309999999999,4.83087,8.34547C4.60707,8.230080000000001,4.38707,8.1079,4.16421,7.99167C4.08277,7.9463,3.99667,7.90795,3.907069,7.87712C3.7913550000000003,7.841060000000001,3.670403,7.88137,3.5832610000000003,8.05742C3.499928,8.22584,3.5108800000000002,8.406559999999999,3.53088,8.58219C3.549928,8.74424,3.60707,8.89781,3.689927,9.044170000000001C3.7804029999999997,9.20326,3.9089739999999997,9.316099999999999,4.06993,9.39925C4.3304,9.53373,4.59278,9.66567,4.85421,9.79803C5.17421,9.9605,5.4942,10.12171,5.81325,10.28461C6.09087,10.42631,6.36753,10.56969,6.6442,10.71308C6.651339999999999,10.71733,6.65611,10.72581,6.67087,10.74278Z" fill="#FFFFFF" fill-opacity="1"/></g></g></g></svg>