<svg xmlns="http://www.w3.org/2000/svg" xmlns:xlink="http://www.w3.org/1999/xlink" fill="none" version="1.1" width="17" height="17" viewBox="0 0 17 17"><g><g><path d="M8.5,17.0001Q8.70866,17.0001,8.91708,16.9898Q9.12549,16.9796,9.33315,16.9591Q9.5408,16.9387,9.74721,16.9081Q9.95361,16.8775,10.1583,16.8367Q10.3629,16.796,10.5653,16.7453Q10.7677,16.6946,10.9674,16.6341Q11.1671,16.5735,11.3636,16.5032Q11.56,16.4329,11.7528,16.353Q11.9456,16.2732,12.1342,16.184Q12.3228,16.0948,12.5069,15.9964Q12.6909,15.898,12.8699,15.7908Q13.0488,15.6835,13.2223,15.5676Q13.3958,15.4516,13.5634,15.3273Q13.731,15.203,13.8923,15.0707Q14.0536,14.9383,14.2082,14.7981Q14.3629,14.658,14.5104,14.5105Q14.658,14.3629,14.7981,14.2083Q14.9382,14.0537,15.0706,13.8924Q15.203,13.7311,15.3273,13.5635Q15.4516,13.3959,15.5675,13.2224Q15.6834,13.0489,15.7907,12.8699Q15.898,12.6909,15.9963,12.5069Q16.0947,12.3229,16.1839,12.1343Q16.2731,11.9456,16.353,11.7529Q16.4328,11.5601,16.5031,11.3636Q16.5734,11.1671,16.634,10.9675Q16.6946,10.7678,16.7453,10.5654Q16.796,10.363,16.8367,10.1583Q16.8774,9.95366,16.908,9.74725Q16.9386,9.54084,16.9591,9.33319Q16.9795,9.12553,16.9898,8.91711Q17,8.7087,17,8.50004Q17,8.29137,16.9898,8.08296Q16.9795,7.87455,16.9591,7.66689Q16.9386,7.45923,16.908,7.25282Q16.8774,7.04642,16.8367,6.84176Q16.796,6.63711,16.7453,6.4347Q16.6946,6.23229,16.634,6.03261Q16.5734,5.83293,16.5031,5.63646Q16.4328,5.43999,16.353,5.24721Q16.2731,5.05443,16.1839,4.8658Q16.0947,4.67717,15.9963,4.49315Q15.898,4.30912,15.7907,4.13014Q15.6834,3.95117,15.5675,3.77767Q15.4516,3.60417,15.3273,3.43657Q15.203,3.26897,15.0706,3.10767Q14.9382,2.94637,14.7981,2.79176Q14.658,2.63715,14.5104,2.4896Q14.3629,2.34205,14.2082,2.20192Q14.0536,2.06179,13.8923,1.92942Q13.731,1.79704,13.5634,1.67274Q13.3958,1.54844,13.2223,1.43251Q13.0488,1.31659,12.8699,1.20931Q12.6909,1.10204,12.5069,1.00367Q12.3228,0.90531,12.1342,0.816094Q11.9456,0.726879,11.7528,0.647027Q11.56,0.567174,11.3636,0.496877Q11.1671,0.426581,10.9674,0.366009Q10.7677,0.305437,10.5653,0.254735Q10.3629,0.204034,10.1583,0.163326Q9.95361,0.122617,9.74721,0.092Q9.5408,0.0613827,9.33315,0.04093Q9.12549,0.0204773,8.91708,0.0102387Q8.70866,0,8.5,0Q8.29134,0,8.08292,0.0102387Q7.87451,0.0204773,7.66685,0.04093Q7.4592,0.0613827,7.25279,0.092Q7.04639,0.122617,6.84173,0.163326Q6.63708,0.204034,6.43467,0.254735Q6.23226,0.305437,6.03258,0.366009Q5.8329,0.426581,5.63644,0.496877Q5.43997,0.567174,5.24719,0.647027Q5.05441,0.726879,4.86578,0.816094Q4.67715,0.90531,4.49313,1.00367Q4.3091,1.10204,4.13013,1.20931Q3.95115,1.31659,3.77765,1.43251Q3.60416,1.54844,3.43656,1.67274Q3.26896,1.79704,3.10766,1.92942Q2.94636,2.06179,2.79175,2.20192Q2.63714,2.34205,2.48959,2.4896Q2.34205,2.63715,2.20192,2.79176Q2.06179,2.94637,1.92941,3.10767Q1.79704,3.26897,1.67274,3.43657Q1.54844,3.60417,1.43251,3.77767Q1.31658,3.95117,1.20931,4.13014Q1.10203,4.30912,1.00367,4.49315Q0.905306,4.67717,0.816091,4.8658Q0.726876,5.05443,0.647024,5.24721Q0.567172,5.43999,0.496875,5.63646Q0.426579,5.83293,0.366007,6.03261Q0.305435,6.23229,0.254734,6.4347Q0.204033,6.63711,0.163325,6.84176Q0.122617,7.04642,0.0919997,7.25282Q0.0613824,7.45923,0.0409298,7.66689Q0.0204772,7.87455,0.0102386,8.08296Q0,8.29137,0,8.50004Q0,8.7087,0.0102386,8.91711Q0.0204772,9.12553,0.0409298,9.33319Q0.0613824,9.54084,0.0919997,9.74725Q0.122617,9.95366,0.163325,10.1583Q0.204033,10.363,0.254734,10.5654Q0.305435,10.7678,0.366007,10.9675Q0.426579,11.1671,0.496875,11.3636Q0.567172,11.5601,0.647024,11.7529Q0.726876,11.9456,0.816091,12.1343Q0.905306,12.3229,1.00367,12.5069Q1.10203,12.6909,1.20931,12.8699Q1.31658,13.0489,1.43251,13.2224Q1.54844,13.3959,1.67274,13.5635Q1.79704,13.7311,1.92941,13.8924Q2.06179,14.0537,2.20192,14.2083Q2.34205,14.3629,2.48959,14.5105Q2.63714,14.658,2.79175,14.7981Q2.94636,14.9383,3.10766,15.0707Q3.26896,15.203,3.43656,15.3273Q3.60416,15.4516,3.77765,15.5676Q3.95115,15.6835,4.13013,15.7908Q4.3091,15.898,4.49313,15.9964Q4.67715,16.0948,4.86578,16.184Q5.05441,16.2732,5.24719,16.353Q5.43997,16.4329,5.63644,16.5032Q5.8329,16.5735,6.03258,16.6341Q6.23226,16.6946,6.43467,16.7453Q6.63708,16.796,6.84173,16.8367Q7.04639,16.8775,7.25279,16.9081Q7.4592,16.9387,7.66685,16.9591Q7.87451,16.9796,8.08292,16.9898Q8.29134,17.0001,8.5,17.0001ZM7.19976,12.106C10.2373,11.9691,12.2721,9.78962,12.3143,6.60762C12.6455,6.33143,13.0306,6.0034,13.2067,5.63765C12.9228,5.77787,12.5905,5.86964,12.2151,5.9203C12.5571,5.66999,12.8376,5.35707,12.9833,4.90928C12.6294,5.09599,12.2614,5.26747,11.8094,5.35493C10.74,4.05906,8.18497,5.10463,8.63601,7.03273C6.83949,6.92265,5.74539,6.10911,4.83582,5.11216C4.3168,5.95482,4.76997,7.22911,5.38282,7.57771C5.06455,7.55833,4.825,7.45997,4.59521,7.35533C4.62543,8.41587,5.21019,8.92198,6.0291,9.19612C5.77996,9.24888,5.5037,9.26094,5.24149,9.21556C5.49287,9.95893,6.03017,10.4208,6.93764,10.5092C6.32368,11.0347,5.17569,11.4048,4.24988,11.257C5.03965,11.7587,5.94713,12.1633,7.19976,12.106Z" fill-rule="evenodd" fill="#8F441F" fill-opacity="1"/></g></g></svg>